<svg width="20" height="21" viewBox="0 0 20 21" fill="none" xmlns="http://www.w3.org/2000/svg">
<g clip-path="url(#clip0_1_222)">
<path d="M14.9993 0.307847L12.4058 0.303589C9.49206 0.303589 7.60908 2.28058 7.60908 5.34049V7.66284H5.0014C4.77607 7.66284 4.5936 7.84979 4.5936 8.08038V11.4452C4.5936 11.6758 4.77628 11.8625 5.0014 11.8625H7.60908V20.353C7.60908 20.5836 7.79155 20.7704 8.01688 20.7704H11.4192C11.6445 20.7704 11.827 20.5834 11.827 20.353V11.8625H14.8759C15.1013 11.8625 15.2837 11.6758 15.2837 11.4452L15.285 8.08038C15.285 7.96966 15.2419 7.86363 15.1656 7.78527C15.0892 7.70692 14.9852 7.66284 14.877 7.66284H11.827V5.69416C11.827 4.74793 12.0473 4.26757 13.2518 4.26757L14.9989 4.26694C15.224 4.26694 15.4065 4.07999 15.4065 3.84961V0.725176C15.4065 0.495007 15.2242 0.308273 14.9993 0.307847Z" fill="#F13C6E"/>
</g>
<defs>
<clipPath id="clip0_1_222">
<rect width="20" height="20.4668" fill="white" transform="translate(0 0.303589)"/>
</clipPath>
</defs>
</svg>
